<?xml version="1.0" encoding="UTF-8" standalone="no"?>
<!-- Created with Inkscape (http://www.inkscape.org/) -->

<svg
   width="136.756mm"
   height="94.181328mm"
   viewBox="0 0 136.756 94.181328"
   version="1.1"
   id="svg1"
   xml:space="preserve"
   inkscape:export-filename="map (1).svg"
   inkscape:export-xdpi="85.634285"
   inkscape:export-ydpi="85.634285"
   inkscape:version="1.4.3 (0d15f75, 2025-12-25)"
   sodipodi:docname="drawing.svg"
   xmlns:inkscape="http://www.inkscape.org/namespaces/inkscape"
   xmlns:sodipodi="http://sodipodi.sourceforge.net/DTD/sodipodi-0.dtd"
   xmlns="http://www.w3.org/2000/svg"
   xmlns:svg="http://www.w3.org/2000/svg"><sodipodi:namedview
     id="namedview1"
     pagecolor="#505050"
     bordercolor="#eeeeee"
     borderopacity="1"
     inkscape:showpageshadow="0"
     inkscape:pageopacity="0"
     inkscape:pagecheckerboard="0"
     inkscape:deskcolor="#505050"
     inkscape:document-units="mm"
     inkscape:zoom="0.25"
     inkscape:cx="342"
     inkscape:cy="584"
     inkscape:window-width="1164"
     inkscape:window-height="669"
     inkscape:window-x="436"
     inkscape:window-y="202"
     inkscape:window-maximized="0"
     inkscape:current-layer="layer1"
     inkscape:export-bgcolor="#ffffff00"><inkscape:page
       x="0"
       y="0"
       width="136.756"
       height="94.181328"
       id="page2"
       margin="0"
       bleed="0" /></sodipodi:namedview><defs
     id="defs1" /><path
     id="rect179"
     style="display:inline;fill:#ffffff;fill-opacity:1;fill-rule:nonzero;stroke-width:0.264583"
     d="M 40.17532,1.05192 V 59.5176 H 13.047266 v 4.67672 H 0.792717 v 24.13444 h 5.051371 v 2.33888 h 8.793262 v -2.33888 h 5.23844 V 85.9904 h 82.0384 v 7.67085 h 16.27704 v -5.33249 h 4.34961 v 2.57297 h 9.49503 v -2.57297 h 3.92844 v -2.94659 h -0.0935 V 59.5176 H 116.13299 V 53.99804 H 105.09491 V 59.5176 H 52.89703 V 1.05192 Z"
     inkscape:label="white backgrnd" /><g
     inkscape:groupmode="layer"
     id="room-130"
     inkscape:label="130"
     transform="translate(-43,-112.32359)"><path
       id="room-130-fill"
       style="fill:#edd380;fill-opacity:1;stroke-width:0.264583"
       inkscape:label="130fill"
       d="m 138.50683,193.16909 v 2.75952 h -6.1743 v 9.7286 h 15.01407 v -0.23409 h 3.83543 v -4.20905 h -3.83543 v -5.05137 -0.23409 -2.75952 z" /><text
       xml:space="preserve"
       style="font-size:3.175px;writing-mode:lr-tb;direction:ltr;fill:#000000;fill-opacity:1;stroke-width:0.264583"
       x="137.46315"
       y="201.81093"
       id="room-130-txt"><tspan
         sodipodi:role="line"
         style="fill:#000000;stroke-width:0.264583"
         x="137.46315"
         y="201.81093"
         id="tspan186">130</tspan></text></g><g
     inkscape:groupmode="layer"
     id="room-129"
     inkscape:label="129"
     transform="translate(-43,-112.32359)"><rect
       style="fill:#edd380;fill-opacity:1;stroke-width:0.264583"
       id="room-129-fill"
       width="12.983309"
       height="26.289183"
       x="118.77336"
       y="179.26643"
       inkscape:label="129fill" /><text
       xml:space="preserve"
       style="font-size:3.175px;writing-mode:lr-tb;direction:ltr;fill:#000000;fill-opacity:1;stroke-width:0.264583"
       x="122.29951"
       y="193.56677"
       id="room-129-txt"
       inkscape:label="129txt"><tspan
         sodipodi:role="line"
         id="tspan155"
         style="fill:#000000;stroke-width:0.264583"
         x="122.29951"
         y="193.56677">129</tspan></text></g><g
     inkscape:groupmode="layer"
     id="room-128"
     inkscape:label="128"
     transform="translate(-43,-112.32359)"><rect
       style="fill:#edd380;fill-opacity:1;stroke-width:0.264583"
       id="room-128-fill"
       width="22.095818"
       height="26.127901"
       x="96.274567"
       y="179.26643"
       inkscape:label="128fill" /><text
       xml:space="preserve"
       style="font-size:3.175px;writing-mode:lr-tb;direction:ltr;fill:#000000;fill-opacity:1;stroke-width:0.264583"
       x="104.40343"
       y="193.72981"
       id="room-128-txt"
       inkscape:label="128txt"><tspan
         sodipodi:role="line"
         id="tspan153"
         style="fill:#000000;stroke-width:0.264583"
         x="104.40343"
         y="193.72981">128</tspan></text></g><g
     inkscape:groupmode="layer"
     id="room-127"
     inkscape:label="127"
     transform="translate(-43,-112.32359)"><rect
       style="fill:#edd380;fill-opacity:1;stroke-width:0.264583"
       id="room-127-fill"
       width="13.628443"
       height="9.9189253"
       x="82.565521"
       y="179.34708"
       inkscape:label="127fill" /><text
       xml:space="preserve"
       style="font-size:3.175px;writing-mode:lr-tb;direction:ltr;fill:#000000;fill-opacity:1;stroke-width:0.264583"
       x="86.222633"
       y="185.55588"
       id="room-127-txt"
       inkscape:label="127txt"><tspan
         sodipodi:role="line"
         id="tspan154"
         style="fill:#000000;stroke-width:0.264583"
         x="86.222633"
         y="185.55588">127</tspan></text></g><g
     inkscape:groupmode="layer"
     id="room-126"
     inkscape:label="126"
     transform="translate(-43,-112.32359)"><rect
       style="fill:#edd380;fill-opacity:1;stroke-width:0.264583"
       id="room-126-fill"
       width="10.321031"
       height="15.966236"
       x="85.810493"
       y="189.65607"
       inkscape:label="126fill" /><text
       xml:space="preserve"
       style="font-size:3.175px;writing-mode:lr-tb;direction:ltr;fill:#000000;fill-opacity:1;stroke-width:0.264583"
       x="87.776016"
       y="198.87622"
       id="room-126-txt"
       inkscape:label="126txt"><tspan
         sodipodi:role="line"
         id="tspan152"
         style="fill:#000000;stroke-width:0.264583"
         x="87.776016"
         y="198.87622">126</tspan></text></g><g
     inkscape:groupmode="layer"
     id="room-125"
     inkscape:label="125"
     transform="translate(-43,-112.32359)"><rect
       style="fill:#edd380;fill-opacity:1;stroke-width:0.264583"
       id="room-125-fill"
       width="12.088721"
       height="9.7508087"
       x="73.436691"
       y="195.70044"
       inkscape:label="125fill" /><text
       xml:space="preserve"
       style="font-size:3.175px;writing-mode:lr-tb;direction:ltr;fill:#000000;fill-opacity:1;stroke-width:0.264583"
       x="76.40184"
       y="201.91586"
       id="room-125-txt"
       inkscape:label="125txt"><tspan
         sodipodi:role="line"
         id="tspan151"
         style="fill:#000000;stroke-width:0.264583"
         x="76.40184"
         y="201.91586">125</tspan></text></g><g
     inkscape:groupmode="layer"
     id="room-124"
     inkscape:label="124"
     transform="translate(-43,-112.32359)"><rect
       style="fill:#edd380;fill-opacity:1;stroke-width:0.272898"
       id="room-124-fill"
       width="10.606143"
       height="15.909213"
       x="62.716499"
       y="189.9982"
       inkscape:label="124fill" /><text
       xml:space="preserve"
       style="font-size:3.175px;writing-mode:lr-tb;direction:ltr;fill:#000000;fill-opacity:1;stroke-width:0.264583"
       x="64.853096"
       y="199.01321"
       id="room-124-txt"
       inkscape:label="124txt"><tspan
         sodipodi:role="line"
         id="tspan150"
         style="fill:#000000;stroke-width:0.264583"
         x="64.853096"
         y="199.01321">124</tspan></text></g><g
     inkscape:groupmode="layer"
     id="room-123"
     inkscape:label="123"
     transform="translate(-43,-112.32359)"><rect
       style="fill:#edd380;fill-opacity:1;stroke-width:0.264583"
       id="room-123-fill"
       width="13.184914"
       height="9.999567"
       x="62.808342"
       y="179.26643"
       inkscape:label="123fill" /><text
       xml:space="preserve"
       style="font-size:3.17623px;writing-mode:lr-tb;direction:ltr;fill:#000000;fill-opacity:1;stroke-width:0.264685"
       x="66.170372"
       y="185.83809"
       id="room-123-txt"
       inkscape:label="123txt"
       transform="scale(1.0022643,0.99774082)"><tspan
         sodipodi:role="line"
         id="tspan149"
         style="fill:#000000;stroke-width:0.264685"
         x="66.170372"
         y="185.83809">123</tspan></text></g><g
     inkscape:groupmode="layer"
     id="room-122"
     inkscape:label="122"
     transform="translate(-43,-112.32359)"><rect
       style="fill:#edd380;fill-opacity:1;stroke-width:0.264583"
       id="room-122-fill"
       width="13.427604"
       height="11.178646"
       x="90.896873"
       y="160.07292"
       inkscape:label="122fill" /><text
       xml:space="preserve"
       style="font-size:3.175px;writing-mode:lr-tb;direction:ltr;fill:#000000;fill-opacity:1;stroke-width:0.264583"
       x="95.023178"
       y="166.96802"
       id="room-122-txt"
       inkscape:label="122txt"><tspan
         sodipodi:role="line"
         id="tspan168"
         style="fill:#000000;stroke-width:0.264583"
         x="95.023178"
         y="166.96802">122</tspan></text></g><g
     inkscape:groupmode="layer"
     id="room-121"
     inkscape:label="121"
     transform="translate(-43,-112.32359)"><rect
       style="fill:#edd380;fill-opacity:1;stroke-width:0.264583"
       id="room-121-fill"
       width="12.513046"
       height="14.270289"
       x="43.540207"
       y="148.42018"
       inkscape:label="121fill" /><text
       xml:space="preserve"
       style="font-size:3.1556px;writing-mode:lr-tb;direction:ltr;display:inline;fill:#000000;fill-opacity:1;stroke-width:0.262967"
       x="46.73386"
       y="156.4306"
       id="room-121-txt"
       transform="scale(0.99960775,1.0003924)"
       inkscape:label="121txt"><tspan
         sodipodi:role="line"
         id="tspan146"
         style="fill:#000000;stroke-width:0.262967"
         x="46.73386"
         y="156.4306">121</tspan></text></g><g
     inkscape:groupmode="layer"
     id="room-120"
     inkscape:label="120"
     transform="translate(-43,-112.32359)"><rect
       style="fill:#edd380;fill-opacity:1;stroke-width:0.264583"
       id="room-120-fill"
       width="12.088721"
       height="12.830011"
       x="43.899147"
       y="163.08369"
       inkscape:label="120fill" /><text
       xml:space="preserve"
       style="font-size:3.1556px;writing-mode:lr-tb;direction:ltr;fill:#000000;fill-opacity:1;stroke-width:0.262967"
       x="46.503834"
       y="170.23743"
       id="room-120-txt"
       transform="scale(0.99960775,1.0003924)"
       inkscape:label="120txt"><tspan
         sodipodi:role="line"
         style="fill:#000000;stroke-width:0.262967"
         x="46.503834"
         y="170.23743"
         id="tspan148">120</tspan></text></g><g
     inkscape:groupmode="layer"
     id="room-119"
     inkscape:label="119"
     transform="translate(-43,-112.32359)"><rect
       style="fill:#edd380;fill-opacity:1;stroke-width:0.264583"
       id="room-119-fill"
       width="27.821375"
       height="25.966618"
       x="56.195713"
       y="145.63887"
       inkscape:label="119fill" /><text
       xml:space="preserve"
       style="font-size:3.1556px;writing-mode:lr-tb;direction:ltr;fill:#000000;fill-opacity:1;stroke-width:0.262967"
       x="66.982986"
       y="159.97745"
       id="room-119-txt"
       transform="scale(0.99960775,1.0003924)"
       inkscape:label="119txt"><tspan
         sodipodi:role="line"
         id="tspan144"
         style="fill:#000000;stroke-width:0.262967"
         x="66.982986"
         y="159.97745">119</tspan></text></g><g
     inkscape:groupmode="layer"
     id="room-118"
     inkscape:label="118"
     transform="translate(-43,-112.32359)"><rect
       style="fill:#edd380;fill-opacity:1;stroke-width:0.280811"
       id="room-118-fill"
       width="23.420237"
       height="15.995187"
       x="61.050591"
       y="129.52499"
       inkscape:label="118fill" /><text
       xml:space="preserve"
       style="font-size:3.1556px;writing-mode:lr-tb;direction:ltr;fill:#000000;fill-opacity:1;stroke-width:0.262967"
       x="70.048546"
       y="138.61578"
       id="room-118-txt"
       transform="scale(0.99960775,1.0003924)"
       inkscape:label="118txt"><tspan
         sodipodi:role="line"
         id="tspan143"
         style="fill:#000000;stroke-width:0.262967"
         x="70.048546"
         y="138.61578">118</tspan></text></g><g
     inkscape:groupmode="layer"
     id="room-117"
     inkscape:label="117"
     transform="translate(-43,-112.32359)"><path
       id="room-117-fill"
       style="fill:#edd380;fill-opacity:1;stroke-width:0.264583"
       inkscape:label="117fill"
       d="m 55.389425,138.05876 v 0.16123 H 43.615467 v 9.67693 h 12.41888 v -2.66134 h 4.999695 v -7.17682 z" /><text
       xml:space="preserve"
       style="font-size:3.1556px;writing-mode:lr-tb;direction:ltr;fill:#000000;fill-opacity:1;stroke-width:0.262967"
       x="48.266659"
       y="144.27235"
       id="room-117-txt"
       transform="scale(0.99960775,1.0003924)"
       inkscape:label="117txt"><tspan
         sodipodi:role="line"
         id="tspan145"
         style="fill:#000000;stroke-width:0.262967"
         x="48.266659"
         y="144.27235">117</tspan></text></g><g
     inkscape:groupmode="layer"
     id="room-116"
     inkscape:label="116"
     transform="translate(-43,-112.32359)"><rect
       style="fill:#edd380;fill-opacity:1;stroke-width:0.265507"
       id="room-116-fill"
       width="11.880001"
       height="12.2925"
       x="43.805595"
       y="125.87493"
       inkscape:label="116fill" /><text
       xml:space="preserve"
       style="font-size:3.15971px;writing-mode:lr-tb;direction:ltr;fill:#b3a373;fill-opacity:1;stroke-width:0.263309"
       x="46.817841"
       y="132.54202"
       id="room-116-txt"
       transform="scale(0.99518499,1.0048383)"
       inkscape:label="116txt"><tspan
         sodipodi:role="line"
         id="tspan47"
         style="fill:#000000;stroke-width:0.263309"
         x="46.817841"
         y="132.54202">116</tspan></text></g><g
     inkscape:groupmode="layer"
     id="room-115"
     inkscape:label="115"
     transform="translate(-43,-112.32359)"><rect
       style="fill:#edd380;fill-opacity:1;stroke-width:0.265507"
       id="room-115-fill"
       width="11.880001"
       height="12.2925"
       x="43.789719"
       y="113.18999"
       inkscape:label="115fill" /><text
       xml:space="preserve"
       style="font-size:3.19895px;writing-mode:lr-tb;direction:ltr;fill:#000000;stroke-width:0.266579"
       x="46.89817"
       y="119.58797"
       id="room-115-txt"
       inkscape:label="115txt"
       transform="scale(0.99251297,1.0075435)"><tspan
         sodipodi:role="line"
         id="tspan26"
         style="stroke-width:0.266579"
         x="46.89817"
         y="119.58797">155</tspan></text></g><g
     inkscape:groupmode="layer"
     id="room-114"
     inkscape:label="114"
     style="display:inline"
     transform="translate(-43,-112.32359)"><path
       id="room-144-fill"
       style="display:inline;fill:#edd380;fill-opacity:1;stroke-width:0.272492"
       inkscape:label="144fill"
       d="m 72.2778,113.4892 v 3.37654 H 60.676958 v 0.0832 h -4.3217 v 21.75475 h 4.821411 v -9.17877 H 83.87916 v -10.11566 h 0.77359 v -5.92005 z" /><text
       xml:space="preserve"
       style="font-size:3.21093px;writing-mode:lr-tb;direction:ltr;fill:#1a1a1a;fill-opacity:1;stroke-width:0.267577"
       x="68.297264"
       y="121.43528"
       id="room-114-txt"
       transform="scale(0.97597958,1.0246116)"
       inkscape:label="114txt"><tspan
         sodipodi:role="line"
         id="tspan142"
         style="fill:#1a1a1a;stroke-width:0.267577"
         x="68.297264"
         y="121.43528">114</tspan></text></g><g
     inkscape:groupmode="layer"
     id="room-113"
     inkscape:label="113"
     transform="translate(-43,-112.32359)"><rect
       style="fill:#edd380;fill-opacity:1;stroke-width:0.257831"
       id="room-113-fill"
       width="12.36927"
       height="12.898437"
       x="109.48363"
       y="158.28699"
       inkscape:label="113fill" /><text
       xml:space="preserve"
       style="font-size:3.175px;writing-mode:lr-tb;direction:ltr;fill:#000000;fill-opacity:1;stroke-width:0.264583"
       x="112.92318"
       y="166.42725"
       id="room-113-txt"
       inkscape:label="113txt"><tspan
         sodipodi:role="line"
         id="tspan169"
         style="fill:#000000;stroke-width:0.264583"
         x="112.92318"
         y="166.42725">113</tspan></text></g><g
     inkscape:groupmode="layer"
     id="room-112"
     inkscape:label="112"
     transform="translate(-43,-112.32359)"><rect
       style="fill:#edd380;fill-opacity:1;stroke-width:0.264583"
       id="room-112-fill"
       width="7.4414062"
       height="12.13776"
       x="104.98587"
       y="141.22136"
       inkscape:label="112fill" /><text
       xml:space="preserve"
       style="font-size:3.175px;writing-mode:lr-tb;direction:ltr;fill:#000000;fill-opacity:1;stroke-width:0.264583"
       x="105.72874"
       y="148.46846"
       id="room-112-txt"
       inkscape:label="112txt"><tspan
         sodipodi:role="line"
         id="tspan167"
         style="fill:#000000;stroke-width:0.264583"
         x="105.72874"
         y="148.46846">112</tspan></text></g><g
     inkscape:groupmode="layer"
     id="room-111"
     inkscape:label="111"
     transform="translate(-43,-112.32359)"><rect
       style="fill:#edd380;fill-opacity:1;stroke-width:0.264583"
       id="room-111-fill"
       width="8.6651039"
       height="12.170834"
       x="112.98934"
       y="141.18828"
       inkscape:label="111fill" /><text
       xml:space="preserve"
       style="font-size:3.175px;writing-mode:lr-tb;direction:ltr;fill:#000000;fill-opacity:1;stroke-width:0.264583"
       x="114.51068"
       y="148.43176"
       id="room-111-txt"
       inkscape:label="111txt"><tspan
         sodipodi:role="line"
         id="tspan166"
         style="fill:#000000;stroke-width:0.264583"
         x="114.51068"
         y="148.43176">111</tspan></text></g><g
     inkscape:groupmode="layer"
     id="room-110"
     inkscape:label="110"
     transform="translate(-43,-112.32359)"><rect
       style="fill:#edd380;fill-opacity:1;stroke-width:0.264583"
       id="room-110-fill"
       width="8.7973957"
       height="12.104688"
       x="122.28279"
       y="141.08907"
       inkscape:label="110fill" /><text
       xml:space="preserve"
       style="font-size:3.175px;writing-mode:lr-tb;direction:ltr;fill:#000000;fill-opacity:1;stroke-width:0.264583"
       x="123.96949"
       y="148.67389"
       id="room-110-txt"
       inkscape:label="110txt"><tspan
         sodipodi:role="line"
         id="tspan165"
         style="fill:#000000;stroke-width:0.264583"
         x="123.96949"
         y="148.67389">110</tspan></text></g><g
     inkscape:groupmode="layer"
     id="room-109"
     inkscape:label="109"
     transform="translate(-43,-112.32359)"><rect
       style="fill:#edd380;fill-opacity:1;stroke-width:0.264583"
       id="room-109-fill"
       width="12.36927"
       height="20.968229"
       x="157.10844"
       y="150.0849"
       inkscape:label="109fill" /><text
       xml:space="preserve"
       style="font-size:3.175px;writing-mode:lr-tb;direction:ltr;fill:#000000;fill-opacity:1;stroke-width:0.264583"
       x="160.29993"
       y="161.26353"
       id="room-109-txt"
       inkscape:label="109txt"><tspan
         sodipodi:role="line"
         id="tspan164"
         style="fill:#000000;stroke-width:0.264583"
         x="160.29993"
         y="161.26353">109</tspan></text></g><g
     inkscape:groupmode="layer"
     id="room-108"
     inkscape:label="108"
     transform="translate(-43,-112.32359)"><path
       id="room-108-fill"
       style="fill:#edd380;fill-opacity:1;fill-rule:nonzero;stroke-width:0.264583"
       inkscape:label="108fill"
       d="m 131.72482,140.78417 v 13.26948 h -7.68894 v -0.19844 h -19.24844 v 3.83646 H 104.589 v 14.51694 h 4.91702 v -13.76919 h 12.74392 v 13.07673 h 9.78959 V 171.373 h 18.20664 v -3.69331 h 6.33346 v -26.72292 h -6.33346 v -0.1726 z" /><text
       xml:space="preserve"
       style="font-size:3.175px;writing-mode:lr-tb;direction:ltr;fill:#000000;fill-opacity:1;fill-rule:nonzero;stroke-width:0.264583"
       x="136.45322"
       y="159.44931"
       id="room-108-txt"
       inkscape:label="108txt"><tspan
         sodipodi:role="line"
         id="tspan174"
         style="fill:#000000;stroke-width:0.264583"
         x="136.45322"
         y="159.44931">108</tspan></text></g><g
     inkscape:groupmode="layer"
     id="room-107"
     inkscape:label="107"
     transform="translate(-43,-112.32359)"><rect
       style="fill:#edd380;fill-opacity:1;fill-rule:nonzero;stroke-width:0.264583"
       id="room-107-fill"
       width="13.49375"
       height="19.182291"
       x="90.698418"
       y="140.36145"
       inkscape:label="107fill" /><text
       xml:space="preserve"
       style="font-size:3.175px;writing-mode:lr-tb;direction:ltr;fill:#000000;fill-opacity:1;fill-rule:nonzero;stroke-width:0.264583"
       x="94.686089"
       y="151.51572"
       id="room-107-txt"
       inkscape:label="107txt"><tspan
         sodipodi:role="line"
         id="tspan175"
         style="fill:#000000;stroke-width:0.264583"
         x="94.686089"
         y="151.51572">107</tspan></text></g><g
     inkscape:groupmode="layer"
     id="room-106"
     inkscape:label="106"
     transform="translate(-43,-112.32359)"><rect
       style="fill:#edd380;fill-opacity:1;stroke-width:0.264583"
       id="room-106-fill"
       width="12.36927"
       height="17.131771"
       x="156.97615"
       y="132.68854"
       inkscape:label="106fill" /><text
       xml:space="preserve"
       style="font-size:3.175px;writing-mode:lr-tb;direction:ltr;fill:#000000;fill-opacity:1;stroke-width:0.264583"
       x="160.48189"
       y="142.5069"
       id="room-106-txt"
       inkscape:label="106txt"><tspan
         sodipodi:role="line"
         id="tspan163"
         style="fill:#000000;stroke-width:0.264583"
         x="160.48189"
         y="142.5069">106</tspan></text></g><g
     inkscape:groupmode="layer"
     id="room-105"
     inkscape:label="105"
     transform="translate(-43,-112.32359)"><rect
       style="fill:#edd380;fill-opacity:1;stroke-width:0.264583"
       id="room-105-fill"
       width="16.470312"
       height="11.509375"
       x="153.07355"
       y="113.24167"
       inkscape:label="105fill" /><text
       xml:space="preserve"
       style="font-size:3.175px;writing-mode:lr-tb;direction:ltr;fill:#000000;fill-opacity:1;stroke-width:0.264583"
       x="158.56366"
       y="120.15958"
       id="room-105-txt"
       inkscape:label="105txt"><tspan
         sodipodi:role="line"
         id="tspan162"
         style="fill:#000000;stroke-width:0.264583"
         x="158.56366"
         y="120.15958">105</tspan></text></g><g
     inkscape:groupmode="layer"
     id="layer21"
     inkscape:label="104"
     transform="translate(-43,-112.32359)"><rect
       style="fill:#edd380;fill-opacity:1;stroke-width:0.264583"
       id="room-104-fill"
       width="16.33802"
       height="11.377083"
       x="136.73555"
       y="113.24167"
       inkscape:label="104fill" /><text
       xml:space="preserve"
       style="font-size:3.175px;writing-mode:lr-tb;direction:ltr;fill:#000000;fill-opacity:1;stroke-width:0.264583"
       x="141.82875"
       y="120.25313"
       id="room-104-txt"
       inkscape:label="104txt"><tspan
         sodipodi:role="line"
         id="tspan161"
         style="fill:#000000;stroke-width:0.264583"
         x="141.82875"
         y="120.25313">104</tspan></text></g><g
     inkscape:groupmode="layer"
     id="room-103"
     inkscape:label="103"
     transform="translate(-43,-112.32359)"><rect
       style="fill:#edd380;fill-opacity:1;stroke-width:0.264583"
       id="room-103-fill"
       width="20.637499"
       height="11.377083"
       x="91.16143"
       y="113.17552"
       inkscape:label="103fill" /><text
       xml:space="preserve"
       style="font-size:3.175px;writing-mode:lr-tb;direction:ltr;fill:#000000;fill-opacity:1;stroke-width:0.264583"
       x="98.437454"
       y="120.31927"
       id="room-103-txt"
       inkscape:label="103txt"><tspan
         sodipodi:role="line"
         id="tspan160"
         style="fill:#000000;stroke-width:0.264583"
         x="98.437454"
         y="120.31927">103</tspan></text></g><g
     inkscape:groupmode="layer"
     id="room-102"
     inkscape:label="102"
     transform="translate(-43,-112.32359)"><path
       id="room-102-fill"
       style="fill:#edd380;fill-opacity:1;fill-rule:nonzero;stroke-width:0.264583"
       d="m 112.26761,116.79029 v 8.35763 H 90.96296 v 15.47812 h 65.74896 v -8.5881 h 12.85141 v -6.87555 h -12.85141 v -0.0145 h -20.45043 v -8.35763 z"
       inkscape:label="102fill" /><text
       xml:space="preserve"
       style="font-size:3.175px;writing-mode:lr-tb;direction:ltr;fill:#000000;fill-opacity:1;fill-rule:nonzero;stroke-width:0.264583"
       x="121.4332"
       y="131.73117"
       id="room-102-txt"
       inkscape:label="102txt"><tspan
         sodipodi:role="line"
         style="fill:#000000;stroke-width:0.264583"
         x="121.4332"
         y="131.73117"
         id="tspan178">102</tspan></text></g><g
     inkscape:label="outline"
     inkscape:groupmode="layer"
     id="layer1"
     style="display:inline"
     transform="translate(-43,-112.32359)"><path
       id="rect11"
       style="fill:#000000;stroke-width:0.199721"
       d="m 43,112.32389 v 0.99994 11.9941 1.05213 78.19316 h 0.999939 v -2.90266 h 4.280359 v 2.13579 h 0.994772 v 0.009 h 8.745202 0.391708 v -2.66237 h 3.712951 v 5.36194 h 1.000456 v -0.0594 h 98.105643 v -1.05162 -4.16615 h 4.01112 v 1.65364 0.99994 h 10.17457 v -0.99994 -1.65364 h 3.33933 v 4.16615 h 0.99994 v -34.4289 -0.0977 h -9.6082 v -58.35768 -0.0558 h -34.15295 v 0.99994 2.79466 h -23.34276 v -2.75952 -1.00046 H 72.319141 71.319202 v 3.96048 H 56.355258 v -3.12539 -0.99994 z m 0.999939,0.99994 h 11.35538 v 11.9941 h -11.35538 z m 92.994841,0.13023 h 15.57631 v 11.10423 h -15.57631 z m 16.57676,0 h 15.57632 v 11.10423 h -15.57632 z m -81.252399,0.0351 H 83.90035 V 128.9988 H 61.676897 60.676958 v 8.69405 h -4.3217 v -11.33368 -1.04128 -7.86877 h 15.747876 0.216007 z m 12.581139,0 h 5.56917 v 10.89339 1.05213 46.77389 h 0.99994 59.47803 v -0.99994 -2.71921 h 5.45031 v 3.40392 h 0.99994 3.33364 v 6.81199 h -6.05182 v 1.05162 h 0.0258 v 11.76982 h -4.52583 v -12.29537 -0.52607 h -7.75043 v 1.05162 0.30954 h -3.49642 v -1.36116 h -0.99994 v 1.36116 1.05213 13.9392 h -5.36712 V 178.70533 H 82.93861 81.93867 v 11.34453 h 0.99994 2.29185 v 5.00796 H 73.68805 v -4.78162 h 3.091801 v -1.05213 -10.51874 h -6.391858 v -6.49676 h 13.512357 0.99993 z m 6.56911,0 h 20.18275 v 10.89339 H 91.46939 Z m 21.18269,3.75997 h 23.34276 v 8.30906 h 0.99994 32.15308 v 6.41666 h -12.75013 v 0.99994 7.37888 H 100.28901 V 130.577 h 1.25109 v -1.05213 h -4.50206 v 1.05213 h 2.25103 v 9.77667 h -1.21285 v 0.99994 h 6.11333 v 18.0175 H 91.46939 v -33.93643 h 21.18269 v -1.05213 z m -68.652141,9.12089 h 11.35538 v 11.32283 h -11.35538 z m 17.676958,3.68092 H 83.90035 v 14.94327 H 61.676897 v -6.29057 -1.01079 -1.35134 z m 95.720773,2.92385 h 11.75019 V 149.519 h -11.75019 z m -113.397731,5.77019 h 16.677019 v 6.24923 h -5.013131 v 0.01 h -0.04599 v 2.60604 H 43.999939 Z m 61.189551,2.60863 h 7.01714 v 11.8339 h -7.01714 z m 8.01708,0 h 8.33386 v 11.8339 h -8.33386 z m 9.33379,0 h 8.48372 v 11.8339 h -8.48372 z m 9.48366,0 h 24.37371 v 26.08368 h -6.48384 v 1.05213 h 0.0336 v 2.71921 h -27.14047 v -12.87105 h -0.99993 v 12.87105 h -12.30106 v -9.60406 h -0.99994 v 9.60406 h -3.31659 v -17.02118 h 26.61439 0.22014 z m -75.406246,4.69273 H 83.90035 v 25.1101 H 56.617774 Z m -12.617835,2.61586 h 11.617896 v 13.62501 H 43.999939 Z m 113.397731,1.85674 h 11.75019 v 20.32227 h -11.75019 z m -65.92828,9.85211 h 12.72016 v 10.83758 H 91.46939 Z m -47.469451,2.96829 h 11.617896 v 12.43645 H 43.999939 Z m 125.147921,8.52817 h 9.60819 v 9.38392 h -6.03012 v -0.44494 h -0.99994 v 12.46229 h -3.14192 v -1.74201 -0.99994 -11.29543 -0.52607 h -6.85282 v -6.81199 h 7.41661 z m -112.530086,0.3411 h 5.507157 v 1.92701 h 1.000456 v -1.92701 h 6.262667 v 6.49676 h -6.262667 v -1.8774 h -1.000456 v 4.33565 h -6.662125 -0.999939 v 1.05213 0.72761 1.05213 0.72708 1.05214 0.7276 1.05213 7.16701 h 0.999939 v -7.16701 h 6.662125 v 12.53722 h -4.71289 v 1.05162 1.61024 h -8.131804 v -2.14509 h -5.280298 v -10.49807 h 6.915341 v 4.61109 h 0.999939 v -17.89348 h 4.702555 v -1.05214 z m -12.617835,4.61936 h 6.915341 v 12.23077 h -6.915341 z m 19.125448,2.92902 h 12.654525 v 9.46712 H 63.125387 Z m 19.813263,0 h 12.85451 v 9.24129 H 82.93865 Z m 13.85445,0 h 21.51806 v 25.63719 H 96.7931 Z m 22.518,0 h 12.25455 v 25.63719 H 119.3111 Z m 24.11791,0 h 5.75055 v 5.40742 h -10.24691 v -4.04575 h 4.48189 0.0145 z m 12.27625,0 h 11.87887 v 10.76988 h -6.3531 -0.99994 v 0.99994 h -4.52583 z m -100.242454,2.45876 h 6.662125 v 0.72761 h -6.662125 z m 117.263124,0.0357 h 6.03012 v 0.51676 h -6.03012 z m 0,1.5167 h 6.03012 v 0.51677 h -6.03012 z m -117.263124,0.22734 h 6.662125 v 0.72708 h -6.662125 z m 117.263124,1.28932 h 6.03012 v 0.62736 h -6.03012 z m -117.263124,0.4899 h 6.662125 v 0.7276 h -6.662125 z m 83.469844,0.44183 h 10.24691 v 6.2761 h -10.24691 z m 33.79328,0.69608 h 6.03012 v 13.31547 h -4.33927 v 0.99994 1.65364 h -8.17469 v -1.74976 -0.90382 h -5.01106 v -8.70128 h 6.3531 v 1.74201 0.99994 h 5.1418 v -0.99994 z m -86.49549,3.13728 h 9.56272 v 15.34428 h -9.56272 z m -23.105053,0.22634 h 9.562724 v 15.11794 h -9.562724 z m 87.054113,2.3027 h 10.05159 v 7.64915 0.99994 4.16615 h -8.38916 v -6.28024 H 150.842 v 1.4702 h -2.76263 v -7.03936 h 2.10013 v -0.52607 z m -11.24685,0.96584 h 8.14678 v 7.03936 1.05213 h 3.76257 v 3.75791 h -18.27641 v -9.2847 h 5.86734 0.49972 z m -65.2446,2.5647 H 85.2305 v 9.2847 H 73.68805 Z" /></g></svg>
